<svg id="visual" viewBox="0 0 900 600" width="900" height="600" xmlns="http://www.w3.org/2000/svg" xmlns:xlink="http://www.w3.org/1999/xlink" version="1.1"><path d="M497 0L509.7 14.3C522.3 28.7 547.7 57.3 567.7 85.8C587.7 114.3 602.3 142.7 553.3 171.2C504.3 199.7 391.7 228.3 365.5 257C339.3 285.7 399.7 314.3 427.7 343C455.7 371.7 451.3 400.3 440.7 428.8C430 457.3 413 485.7 423.3 514.2C433.7 542.7 471.3 571.3 490.2 585.7L509 600L0 600L0 585.7C0 571.3 0 542.7 0 514.2C0 485.7 0 457.3 0 428.8C0 400.3 0 371.7 0 343C0 314.3 0 285.7 0 257C0 228.3 0 199.7 0 171.2C0 142.7 0 114.3 0 85.8C0 57.3 0 28.7 0 14.3L0 0Z" fill="#009688" stroke-linecap="round" stroke-linejoin="miter"></path></svg>