<svg id="visual" viewBox="0 0 900 600" width="900" height="600" xmlns="http://www.w3.org/2000/svg" xmlns:xlink="http://www.w3.org/1999/xlink" version="1.1"><rect x="0" y="0" width="900" height="600" fill="#002233"></rect><path d="M324 0L302.8 14.3C281.7 28.7 239.3 57.3 204.8 85.8C170.3 114.3 143.7 142.7 155 171.2C166.3 199.7 215.7 228.3 219 257C222.3 285.7 179.7 314.3 160.8 343C142 371.7 147 400.3 176 428.8C205 457.3 258 485.7 268 514.2C278 542.7 245 571.3 228.5 585.7L212 600L0 600L0 585.7C0 571.3 0 542.7 0 514.2C0 485.7 0 457.3 0 428.8C0 400.3 0 371.7 0 343C0 314.3 0 285.7 0 257C0 228.3 0 199.7 0 171.2C0 142.7 0 114.3 0 85.8C0 57.3 0 28.7 0 14.3L0 0Z" fill="#0066FF" stroke-linecap="round" stroke-linejoin="miter"></path></svg>