<svg id="visual" viewBox="0 0 900 600" width="900" height="600" xmlns="http://www.w3.org/2000/svg" xmlns:xlink="http://www.w3.org/1999/xlink" version="1.1"><rect x="0" y="0" width="900" height="600" fill="#fff"></rect><path d="M193 0L192.7 12.5C192.3 25 191.7 50 175.8 75C160 100 129 125 114.2 150C99.3 175 100.7 200 122.3 225C144 250 186 275 194.2 300C202.3 325 176.7 350 172.2 375C167.7 400 184.3 425 180.2 450C176 475 151 500 164.2 525C177.3 550 228.7 575 254.3 587.5L280 600L0 600L0 587.5C0 575 0 550 0 525C0 500 0 475 0 450C0 425 0 400 0 375C0 350 0 325 0 300C0 275 0 250 0 225C0 200 0 175 0 150C0 125 0 100 0 75C0 50 0 25 0 12.5L0 0Z" fill="#009688" stroke-linecap="round" stroke-linejoin="miter"></path></svg>