<svg id="visual" viewBox="0 0 900 600" width="900" height="600" xmlns="http://www.w3.org/2000/svg" xmlns:xlink="http://www.w3.org/1999/xlink" version="1.1"><path d="M343 0L336.8 11.2C330.7 22.3 318.3 44.7 327.7 66.8C337 89 368 111 368 133.2C368 155.3 337 177.7 308.2 200C279.3 222.3 252.7 244.7 248 266.8C243.3 289 260.7 311 268.8 333.2C277 355.3 276 377.7 282 400C288 422.3 301 444.7 306.8 466.8C312.7 489 311.3 511 322.5 533.2C333.7 555.3 357.3 577.7 369.2 588.8L381 600L0 600L0 588.8C0 577.7 0 555.3 0 533.2C0 511 0 489 0 466.8C0 444.7 0 422.3 0 400C0 377.7 0 355.3 0 333.2C0 311 0 289 0 266.8C0 244.7 0 222.3 0 200C0 177.7 0 155.3 0 133.2C0 111 0 89 0 66.8C0 44.7 0 22.3 0 11.2L0 0Z" fill="#009688" stroke-linecap="round" stroke-linejoin="miter"></path></svg>