<svg id="visual" viewBox="0 0 900 600" width="900" height="600" xmlns="http://www.w3.org/2000/svg" xmlns:xlink="http://www.w3.org/1999/xlink" version="1.1"><path d="M397 0L407.3 14.3C417.7 28.7 438.3 57.3 454.5 85.8C470.7 114.3 482.3 142.7 443 171.2C403.7 199.7 313.3 228.3 292.3 257C271.3 285.7 319.7 314.3 342.2 343C364.7 371.7 361.3 400.3 352.8 428.8C344.3 457.3 330.7 485.7 339 514.2C347.3 542.7 377.7 571.3 392.8 585.7L408 600L0 600L0 585.7C0 571.3 0 542.7 0 514.2C0 485.7 0 457.3 0 428.8C0 400.3 0 371.7 0 343C0 314.3 0 285.7 0 257C0 228.3 0 199.7 0 171.2C0 142.7 0 114.3 0 85.8C0 57.3 0 28.7 0 14.3L0 0Z" fill="#009688" stroke-linecap="round" stroke-linejoin="miter"></path></svg>